<?xml version="1.0" encoding="UTF-8"?>
<svg id="Layer_1" data-name="Layer 1" xmlns="http://www.w3.org/2000/svg" viewBox="0 0 122.55 120.67">
  <defs>
    <style>
      .cls-1 {
        fill: #fff;
      }

      .cls-1, .cls-2 {
        stroke-width: 0px;
      }

      .cls-2 {
        fill: #ee3424;
      }
    </style>
  </defs>
  <path id="path8556" class="cls-2" d="m120.66,60.34c0,33.33-27.01,60.33-60.33,60.33S0,93.66,0,60.34,27.01,0,60.32,0c33.32,0,60.33,27.01,60.33,60.34"/>
  <path id="path8558" class="cls-2" d="m117.72,34.3l.24-.07c.1.41.37.61.79.61.17,0,.32-.05.41-.15.09-.1.15-.23.15-.4,0-.21-.14-.36-.39-.48-.24-.1-.48-.19-.72-.29-.26-.14-.38-.34-.38-.59,0-.23.06-.39.2-.53.14-.13.34-.2.58-.2.22,0,.41.06.57.18.16.1.26.27.32.49l-.22.07c-.11-.35-.33-.53-.67-.53-.16,0-.29.05-.39.13-.11.1-.14.22-.14.39,0,.1.02.19.09.26.07.08.22.16.47.25.38.15.63.27.76.4.12.11.17.28.17.48,0,.23-.08.41-.25.55-.16.12-.36.18-.59.18-.27,0-.48-.06-.64-.18-.15-.12-.27-.31-.35-.57"/>
  <polygon id="polygon8560" class="cls-2" points="120.37 35.01 120.11 35.01 120.11 32.24 120.56 32.24 121.33 34.59 121.34 34.59 122.1 32.24 122.55 32.24 122.55 35.01 122.3 35.01 122.3 32.45 121.46 35.01 121.21 35.01 120.37 32.45 120.37 35.01"/>
  <path id="path8562" class="cls-1" d="m20.86,78.5c1.04-4.96,2.12-15.96,3.49-29.17h4.69s.33-2.08.33-2.08h-4.76c.43-4.08,1.23-12.89,5.04-14.48,1.03,1.79,2.02,3.18,4.22,3.22,1.42.03,2.67-.6,2.7-2.15.05-2.19-3.32-3.08-5.04-3.11-3.2-.05-12.3,1.14-14.54,13.38l-.58,3.15-3.69.02-.34,2.08h3.72c-1.08,9.6-3.2,29-3.77,31.66-1.28,5.83-1.73,7.24-4.64,8.82.35.62.71,1.24,1.09,1.85,4.98-1.52,10.59-6.07,12.08-13.19"/>
  <path id="path8564" class="cls-1" d="m46.89,57.38c0-2.45-.17-8.26-3.76-8.26-5.3,0-6.04,10.19-6.04,13.9,0,2.39.17,8.2,3.76,8.2,5.29,0,6.04-10.19,6.04-13.84m-18.06,7.12c0-9.4,6.15-17.54,16.35-17.54,6.27,0,9.97,2.79,9.97,8.88,0,9.4-6.15,17.56-16.35,17.56-6.27,0-9.97-2.8-9.97-8.9"/>
  <path id="path8566" class="cls-1" d="m75.37,57.38c0-2.45-.17-8.26-3.75-8.26-5.3,0-6.04,10.19-6.04,13.9,0,2.39.17,8.2,3.76,8.2,5.3,0,6.04-10.19,6.04-13.84m-18.05,7.12c0-9.4,6.15-17.54,16.35-17.54,6.28,0,9.97,2.79,9.97,8.88,0,9.4-6.15,17.56-16.34,17.56-6.27,0-9.97-2.8-9.97-8.9"/>
  <path id="path8568" class="cls-1" d="m101.57,61.76c1.36-3.52,1.83-6.77,2.57-12.08-.29-.11-.63-.17-.91-.17-6.27,0-9.24,9.11-9.24,14.18,0,1.25.29,4.27,2.11,4.27,2.51,0,4.73-4.27,5.47-6.21m13.04,8.48c-3.59,1.72-7.96,3.14-10.99,3.14-1.54,0-1.48-2.44-1.48-3.48,0-1.2.12-2.85.4-6.03l-.12-.12c-2.05,4.11-6.04,9.63-11.17,9.63-4.09,0-5.81-4.27-5.81-7.81,0-8.94,7.07-18.23,16.92-18.23h2.05c.8-6.2.85-8.82.85-10.7,0-.63,0-1.2-.68-1.2-.52,0-1.3.16-3.31.8l-.5-1.65c4.04-1.42,8.44-2.33,12.35-2.44.51,0,.69,0,.69.85,0,5.24-3.94,32.29-3.94,35.02,0,.75,0,1.72.75,1.72.4,0,1.72-.46,3.48-1.08l.51,1.58"/>
  <path id="path8570" class="cls-1" d="m31.17,84.4v-6.92h1.52v.75c.61-.43,1.31-.87,2.12-.87,1.37,0,2.04.91,2.04,2.31v4.73h-1.65v-4.49c0-.94-.29-1.23-.85-1.23-.71,0-1.26.41-1.54.73v4.99h-1.65Z"/>
  <path id="path8572" class="cls-1" d="m43.92,80.09c-.02-.96-.53-1.51-1.33-1.51s-1.3.55-1.33,1.51h2.66Zm-2.66,1.12c.03,1.43.67,2,1.44,2s1.12-.35,1.53-.83l1.2.74c-.63.98-1.57,1.4-2.9,1.4-1.79,0-2.92-1.39-2.92-3.58s1.12-3.59,3-3.59c1.81-.02,2.81,1.52,2.81,3.17v.68h-4.18"/>
  <path id="path8574" class="cls-1" d="m48.65,77.48v-2.27h1.65v2.27h1.36v1.33h-1.36v3.91c0,.36.19.48.6.48.25,0,.51-.08.76-.14v1.37c-.46.05-.85.1-1.31.1-1.22,0-1.7-.6-1.7-1.6v-4.11h-.95v-1.33h.95Z"/>
  <polygon id="polygon8576" class="cls-1" points="53.69 77.48 55.25 77.48 56.19 81.79 56.22 81.79 57.22 77.48 58.74 77.48 59.71 81.79 59.73 81.79 60.72 77.48 62.28 77.48 60.5 84.4 59 84.4 57.99 80.09 57.96 80.09 56.95 84.4 55.46 84.4 53.69 77.48"/>
  <path id="path8578" class="cls-1" d="m67.32,78.68c-.92,0-1.35.72-1.35,2.26s.43,2.27,1.35,2.27,1.36-.73,1.36-2.27c0-1.54-.44-2.26-1.36-2.26m0-1.33c1.88,0,3.01,1.4,3.01,3.58s-1.13,3.58-3.01,3.58-3-1.38-3-3.58c0-2.18,1.12-3.58,3-3.58"/>
  <path id="path8580" class="cls-1" d="m72.99,84.4v-6.92h1.51v1.19h.03c.4-.83.95-1.29,1.95-1.32v1.74c-.09,0-.19,0-.3,0-.82,0-1.54.94-1.54,1.11v4.2h-1.65Z"/>
  <polygon id="polygon8582" class="cls-1" points="79.11 84.4 79.11 74.8 80.76 74.8 80.76 80.15 80.8 80.15 82.84 77.48 84.73 77.48 82.69 80.06 84.87 84.4 83.12 84.4 81.59 81.3 80.76 82.26 80.76 84.4 79.11 84.4"/>
</svg>