<?xml version="1.0" encoding="utf-8"?>
<!-- Generator: Adobe Illustrator 25.0.1, SVG Export Plug-In . SVG Version: 6.00 Build 0)  -->
<svg version="1.0" id="katman_1" xmlns="http://www.w3.org/2000/svg" xmlns:xlink="http://www.w3.org/1999/xlink" x="0px" y="0px"
	 viewBox="0 0 560 400" style="enable-background:new 0 0 560 400;" xml:space="preserve">
<g>
	<path d="M185.6,201c0-27.5,10.2-44.9,22.3-46.7c-12.2-15-32.5-22.9-50.9-22.9c-20.3,0-38.5,8.8-51.1,22.8c12,2.4,16.1,12.4,16.1,28
		h-14.7c0-9.2-1.9-13.9-7.3-13.9c-2.5,0-4.4,1.2-5.5,3.3c-0.2,0.4-0.3,0.7-0.5,1.1c-0.4,1.2-0.7,2.6-0.7,4.1
		c0,19,31.2,18.1,31.2,47.3c0,11.4-8.7,22-18.6,22c12.9,14.1,30.6,22.6,51,22.6c19.8,0,37.6-8.4,50.1-21.8
		C195.6,243.9,185.6,227.2,185.6,201 M179,246.2h-15.7v-39.1h-17v39.1h-15.7V156h15.7v36.3h17V156H179V246.2L179,246.2z"/>
	<path d="M101.9,231.9c4.4,0,7.5-3.9,7.5-9.5c0-11.6-10.2-13.9-21-23.7C88.2,218.7,94.4,231.9,101.9,231.9"/>
	<path d="M201.2,199.5c0-15.2,4.4-30.4,12.5-30.4c9.6,0,12,23.4,12,30.9c0,16.3-5.1,30.9-12,30.9C205.4,231,201.2,215.5,201.2,199.5
		"/>
	<polygon points="358,157.4 345.8,157.4 303.3,157.4 301.3,157.4 291.8,157.4 285.5,208.9 285.3,208.9 278.3,157.4 263.9,157.4 
		256.2,208.9 256,208.9 250.3,157.4 235.8,157.4 247.5,245.1 261.5,245.1 269.4,189.5 269.6,189.5 277.3,245.1 291.8,245.1 
		301.5,170.9 315.1,170.9 315.1,245.1 331.1,245.1 331.1,170.9 345.8,170.9 345.8,245.1 361.8,245.1 361.8,157.4 	"/>
	<polygon points="369.6,157.4 391,157.4 398.1,202.2 398.3,202.2 405.8,157.4 426.7,157.4 426.7,245.1 412.4,245.1 412.4,180.8 
		412.1,180.8 401.3,245.1 392.4,245.1 381.7,180.8 381.5,180.8 381.5,245.1 369.6,245.1 	"/>
	<polygon points="434.5,157.4 470.8,157.4 470.8,170.9 450.5,170.9 450.5,193.2 465.5,193.2 465.5,207.6 450.5,207.6 450.5,231.5 
		471.6,231.5 471.6,245.1 434.5,245.1 	"/>
</g>
</svg>
